# File created by Blade
# Date/Time:  Mon Sep 22 16:09:39 2014
# Frame Rate: 120.000 fps
#------------------------------------------------------
:FULLY-SPECIFIED
:DEGREES
3856
root 2.616771 36.965617 2.894692 -0.776351 -2.413241 2.723620
RightUpLeg 9.615064 -4.322088 -3.768124
RightLeg -4.948426 -0.000000 0.000000
RightFoot -14.524531 -17.907938 15.513395
RightToeBase 13.266799 -0.000000 -0.000000
LeftUpLeg 7.368101 1.805780 0.814195
LeftLeg -2.318055 -0.000000 0.000000
LeftFoot -9.866420 11.971861 -17.622272
LeftToeBase 7.649271 -0.000000 -0.000000
Spine 1.531512 -9.455045 -1.912744
RightShoulder -4.582811 -24.012734 -18.098708
RightArm 18.569536 6.984675 39.632998
RightForeArm 2.252562 0.000000 21.122911
RightHand -3.118121 -0.000000 -8.847039
RightHandThumb1 -24.326973 -0.000000 -32.862282
LeftShoulder -28.011787 38.408446 -1.555268
LeftArm 47.826259 -25.105955 -62.292869
LeftForeArm 34.639291 -0.000000 10.033024
LeftHand -18.912714 -0.000000 -2.669450
LeftHandThumb1 -26.253704 0.000000 33.147579
Head 7.316802 14.807913 -0.388117
3857
root 2.619243 36.971321 2.875983 -0.788679 -2.440940 2.719837
RightUpLeg 9.565102 -4.305773 -3.767002
RightLeg -4.895244 -0.000000 0.000000
RightFoot -14.456361 -17.924005 15.478668
RightToeBase 13.247808 -0.000000 -0.000000
LeftUpLeg 7.327758 1.765856 0.809705
LeftLeg -2.270625 -0.000000 0.000000
LeftFoot -9.862324 12.032855 -17.647177
LeftToeBase 7.683000 -0.000000 -0.000000
Spine 1.573210 -9.373485 -1.867145
RightShoulder -4.381832 -23.580455 -18.823220
RightArm 17.950729 8.415966 39.619925
RightForeArm 2.804891 -0.000000 20.474805
RightHand -2.818237 0.000000 -8.302917
RightHandThumb1 -24.326973 -0.000000 -32.862282
LeftShoulder -27.954908 38.385030 -1.130587
LeftArm 47.973110 -26.327143 -62.366963
LeftForeArm 34.578855 -0.000000 9.713936
LeftHand -18.886198 -0.000000 -2.388765
LeftHandThumb1 -26.253704 0.000000 33.147579
Head 7.037022 14.707753 -0.337262
3858
root 2.620381 36.976703 2.861229 -0.861578 -2.504196 2.708000
RightUpLeg 9.583997 -4.244487 -3.758592
RightLeg -4.858407 -0.000000 0.000000
RightFoot -14.465981 -17.893485 15.552125
RightToeBase 13.454250 -0.000000 -0.000000
LeftUpLeg 7.368802 1.817355 0.817691
LeftLeg -2.236387 -0.000000 0.000000
LeftFoot -9.844767 12.058189 -17.649115
LeftToeBase 7.676415 -0.000000 -0.000000
Spine 1.694325 -9.248318 -1.828501
RightShoulder -4.150327 -23.088138 -19.528381
RightArm 17.215449 9.690489 39.478706
RightForeArm 3.350399 0.000000 19.963487
RightHand -2.775581 -0.000000 -7.690837
RightHandThumb1 -24.326973 -0.000000 -32.862282
LeftShoulder -27.853404 38.303486 -0.654847
LeftArm 48.102840 -27.535884 -62.450921
LeftForeArm 34.468330 0.000000 9.372011
LeftHand -18.959837 -0.000000 -2.046011
LeftHandThumb1 -26.253704 0.000000 33.147579
Head 6.747965 14.571782 -0.324217
3859
root 2.622379 36.983101 2.840908 -0.878288 -2.537888 2.702778
RightUpLeg 9.530134 -4.227775 -3.754997
RightLeg -4.792391 -0.000000 0.000000
RightFoot -14.457376 -17.868323 15.601528
RightToeBase 13.481182 -0.000000 -0.000000
LeftUpLeg 7.320930 1.767542 0.813816
LeftLeg -2.167557 -0.000000 0.000000
LeftFoot -9.844341 12.119397 -17.698272
LeftToeBase 7.690170 -0.000000 -0.000000
Spine 1.750562 -9.161635 -1.794937
RightShoulder -3.977499 -22.826796 -20.183522
RightArm 16.691188 10.918123 39.236228
RightForeArm 4.060426 -0.000000 19.421918
RightHand -2.641069 0.000000 -6.994699
RightHandThumb1 -24.326973 -0.000000 -32.862282
LeftShoulder -27.821227 38.305208 -0.263924
LeftArm 48.344212 -28.768429 -62.559729
LeftForeArm 34.327736 -0.000000 9.056517
LeftHand -19.044626 -0.000000 -1.757347
LeftHandThumb1 -26.253704 0.000000 33.147579
Head 6.458744 14.404446 -0.308688
3860
root 2.625155 36.988591 2.821881 -0.912630 -2.604885 2.696480
RightUpLeg 9.495595 -4.171572 -3.753151
RightLeg -4.741258 -0.000000 0.000000
RightFoot -14.421758 -17.860667 15.592127
RightToeBase 13.520116 -0.000000 -0.000000
LeftUpLeg 7.298334 1.786937 0.817737
LeftLeg -2.105370 -0.000000 0.000000
LeftFoot -9.819766 12.149078 -17.671195
LeftToeBase 7.658527 -0.000000 -0.000000
Spine 1.838783 -9.065896 -1.743598
RightShoulder -3.806271 -22.486055 -20.853024
RightArm 16.157131 12.047993 38.951208
RightForeArm 4.540016 -0.000000 18.882544
RightHand -2.443382 0.000000 -6.239454
RightHandThumb1 -24.326973 -0.000000 -32.862282
LeftShoulder -27.807077 38.283698 0.092192
LeftArm 48.502747 -29.913355 -62.533807
LeftForeArm 34.122547 -0.000000 8.770525
LeftHand -19.228076 -0.000000 -1.516248
LeftHandThumb1 -26.253704 0.000000 33.147579
Head 6.142635 14.345037 -0.337718
